<svg xmlns="http://www.w3.org/2000/svg" viewBox="0 0 200 100" width="200" height="100">
  <!-- Left wings -->
  <ellipse cx="45" cy="35" rx="40" ry="28" fill="#E040FB" opacity="0.7" transform="rotate(-15 45 35)"/>
  <ellipse cx="40" cy="65" rx="30" ry="22" fill="#AB47BC" opacity="0.7" transform="rotate(10 40 65)"/>
  <ellipse cx="50" cy="35" rx="18" ry="12" fill="#EA80FC" opacity="0.5" transform="rotate(-15 50 35)"/>
  <!-- Right wings -->
  <ellipse cx="155" cy="35" rx="40" ry="28" fill="#E040FB" opacity="0.7" transform="rotate(15 155 35)"/>
  <ellipse cx="160" cy="65" rx="30" ry="22" fill="#AB47BC" opacity="0.7" transform="rotate(-10 160 65)"/>
  <ellipse cx="150" cy="35" rx="18" ry="12" fill="#EA80FC" opacity="0.5" transform="rotate(15 150 35)"/>
  <!-- Body -->
  <ellipse cx="100" cy="50" rx="5" ry="25" fill="#4A148C"/>
  <!-- Antennae -->
  <path d="M98,28 Q85,10 78,5" fill="none" stroke="#4A148C" stroke-width="2"/>
  <path d="M102,28 Q115,10 122,5" fill="none" stroke="#4A148C" stroke-width="2"/>
  <circle cx="78" cy="5" r="3" fill="#E040FB"/>
  <circle cx="122" cy="5" r="3" fill="#E040FB"/>
</svg>