<svg xmlns="http://www.w3.org/2000/svg" viewBox="0 0 200 160" width="200" height="160">
  <path d="M40,155 Q30,100 50,70 Q55,40 45,20 Q60,50 70,30 Q75,55 90,25 Q88,60 100,10 Q110,55 115,30 Q125,55 130,30 Q135,50 155,20 Q145,40 150,70 Q170,100 160,155 Z" fill="#FF6D00" opacity="0.8"/>
  <path d="M55,155 Q45,110 65,80 Q70,55 60,35 Q75,60 80,45 Q85,65 100,25 Q105,60 110,45 Q120,60 125,40 Q130,60 140,35 Q135,55 140,80 Q155,110 145,155 Z" fill="#FF9100" opacity="0.8"/>
  <path d="M70,155 Q65,120 80,95 Q85,75 80,55 Q90,75 100,45 Q110,75 120,55 Q115,75 120,95 Q135,120 130,155 Z" fill="#FFAB00" opacity="0.8"/>
  <path d="M85,155 Q82,130 90,110 Q95,95 100,70 Q105,95 110,110 Q118,130 115,155 Z" fill="#FFD600" opacity="0.7"/>
</svg>