<svg xmlns="http://www.w3.org/2000/svg" viewBox="0 0 200 90" width="200" height="90">
  <!-- Left heart -->
  <path d="M50,35 C50,20 30,10 20,25 C10,40 50,70 50,70 C50,70 90,40 80,25 C70,10 50,20 50,35 Z" fill="#E91E63" opacity="0.9"/>
  <path d="M42,30 C42,24 35,20 30,27 C28,30 42,42 42,42" fill="#F48FB1" opacity="0.5"/>
  <!-- Right heart -->
  <path d="M150,35 C150,20 130,10 120,25 C110,40 150,70 150,70 C150,70 190,40 180,25 C170,10 150,20 150,35 Z" fill="#E91E63" opacity="0.9"/>
  <path d="M142,30 C142,24 135,20 130,27 C128,30 142,42 142,42" fill="#F48FB1" opacity="0.5"/>
</svg>
