<svg xmlns="http://www.w3.org/2000/svg" viewBox="0 0 200 80" width="200" height="80">
  <!-- Left heart lens -->
  <path d="M45,25 C45,15 30,8 22,20 C14,32 45,58 45,58 C45,58 76,32 68,20 C60,8 45,15 45,25 Z" fill="#E91E63" fill-opacity="0.7" stroke="#C2185B" stroke-width="2"/>
  <!-- Right heart lens -->
  <path d="M155,25 C155,15 140,8 132,20 C124,32 155,58 155,58 C155,58 186,32 178,20 C170,8 155,15 155,25 Z" fill="#E91E63" fill-opacity="0.7" stroke="#C2185B" stroke-width="2"/>
  <!-- Bridge -->
  <path d="M70,30 Q100,42 130,30" fill="none" stroke="#C2185B" stroke-width="3"/>
  <!-- Arms -->
  <line x1="14" y1="28" x2="0" y2="24" stroke="#C2185B" stroke-width="3"/>
  <line x1="186" y1="28" x2="200" y2="24" stroke="#C2185B" stroke-width="3"/>
</svg>