<svg xmlns="http://www.w3.org/2000/svg" width="400" height="150" viewBox="0 0 400 150" fill="none">
  <!-- Left side -->
  <path d="M200,80 Q160,20 80,40 Q20,55 10,100 Q15,120 40,110 Q80,90 120,70 Q160,50 200,80" fill="#3e2723"/>
  <!-- Right side -->
  <path d="M200,80 Q240,20 320,40 Q380,55 390,100 Q385,120 360,110 Q320,90 280,70 Q240,50 200,80" fill="#3e2723"/>
  <!-- Highlight -->
  <path d="M200,75 Q165,30 90,48 Q100,40 130,38 Q170,30 200,70" fill="#4e342e" opacity="0.5"/>
  <path d="M200,75 Q235,30 310,48 Q300,40 270,38 Q230,30 200,70" fill="#4e342e" opacity="0.5"/>
</svg>
