<svg xmlns="http://www.w3.org/2000/svg" viewBox="0 0 240 120" width="240" height="120">
  <!-- Left wing -->
  <path d="M100,110 Q60,80 20,40 Q10,30 5,10" fill="none" stroke="#FF6D00" stroke-width="4"/>
  <path d="M100,110 Q55,75 15,50" fill="none" stroke="#FF9100" stroke-width="3"/>
  <path d="M100,110 Q50,90 10,70" fill="none" stroke="#FFAB00" stroke-width="2"/>
  <!-- Feathers left -->
  <ellipse cx="30" cy="35" rx="15" ry="6" fill="#FF6D00" opacity="0.7" transform="rotate(-40 30 35)"/>
  <ellipse cx="20" cy="50" rx="12" ry="5" fill="#FF9100" opacity="0.7" transform="rotate(-30 20 50)"/>
  <ellipse cx="15" cy="65" rx="10" ry="4" fill="#FFAB00" opacity="0.7" transform="rotate(-20 15 65)"/>
  <!-- Right wing -->
  <path d="M140,110 Q180,80 220,40 Q230,30 235,10" fill="none" stroke="#FF6D00" stroke-width="4"/>
  <path d="M140,110 Q185,75 225,50" fill="none" stroke="#FF9100" stroke-width="3"/>
  <path d="M140,110 Q190,90 230,70" fill="none" stroke="#FFAB00" stroke-width="2"/>
  <!-- Feathers right -->
  <ellipse cx="210" cy="35" rx="15" ry="6" fill="#FF6D00" opacity="0.7" transform="rotate(40 210 35)"/>
  <ellipse cx="220" cy="50" rx="12" ry="5" fill="#FF9100" opacity="0.7" transform="rotate(30 220 50)"/>
  <ellipse cx="225" cy="65" rx="10" ry="4" fill="#FFAB00" opacity="0.7" transform="rotate(20 225 65)"/>
</svg>