<svg xmlns="http://www.w3.org/2000/svg" viewBox="0 0 200 220" width="200" height="220">
  <!-- Antenna -->
  <line x1="100" y1="10" x2="100" y2="35" stroke="#78909C" stroke-width="4"/>
  <circle cx="100" cy="8" r="6" fill="#F44336"/>
  <!-- Head -->
  <rect x="25" y="35" width="150" height="140" rx="15" fill="#90A4AE" stroke="#607D8B" stroke-width="3"/>
  <!-- Eyes -->
  <rect x="45" y="65" width="40" height="30" rx="5" fill="#212121"/>
  <rect x="50" y="70" width="12" height="20" rx="2" fill="#00E676"/>
  <rect x="68" y="70" width="12" height="20" rx="2" fill="#00E676"/>
  <rect x="115" y="65" width="40" height="30" rx="5" fill="#212121"/>
  <rect x="120" y="70" width="12" height="20" rx="2" fill="#00E676"/>
  <rect x="138" y="70" width="12" height="20" rx="2" fill="#00E676"/>
  <!-- Mouth -->
  <rect x="55" y="120" width="90" height="15" rx="3" fill="#212121"/>
  <rect x="62" y="123" width="10" height="8" rx="1" fill="#BDBDBD"/>
  <rect x="78" y="123" width="10" height="8" rx="1" fill="#BDBDBD"/>
  <rect x="94" y="123" width="10" height="8" rx="1" fill="#BDBDBD"/>
  <rect x="110" y="123" width="10" height="8" rx="1" fill="#BDBDBD"/>
  <rect x="126" y="123" width="10" height="8" rx="1" fill="#BDBDBD"/>
  <!-- Bolts -->
  <circle cx="25" cy="100" r="8" fill="#607D8B" stroke="#455A64" stroke-width="2"/>
  <circle cx="175" cy="100" r="8" fill="#607D8B" stroke="#455A64" stroke-width="2"/>
</svg>