<svg xmlns="http://www.w3.org/2000/svg" viewBox="0 0 200 220" width="200" height="220">
  <!-- Skull shape -->
  <path d="M100,10 Q30,10 20,80 Q15,130 40,160 L55,160 L55,180 L75,180 L75,160 L125,160 L125,180 L145,180 L145,160 L160,160 Q185,130 180,80 Q170,10 100,10 Z" fill="white" stroke="#BDBDBD" stroke-width="2"/>
  <!-- Eye sockets -->
  <ellipse cx="65" cy="80" rx="25" ry="28" fill="#212121"/>
  <ellipse cx="135" cy="80" rx="25" ry="28" fill="#212121"/>
  <!-- Nose -->
  <path d="M95,115 L90,135 L100,130 L110,135 L105,115 Z" fill="#424242"/>
  <!-- Teeth -->
  <rect x="65" y="150" width="14" height="18" rx="2" fill="white" stroke="#BDBDBD" stroke-width="1"/>
  <rect x="82" y="150" width="14" height="18" rx="2" fill="white" stroke="#BDBDBD" stroke-width="1"/>
  <rect x="99" y="150" width="14" height="18" rx="2" fill="white" stroke="#BDBDBD" stroke-width="1"/>
  <rect x="116" y="150" width="14" height="18" rx="2" fill="white" stroke="#BDBDBD" stroke-width="1"/>
</svg>