<svg xmlns="http://www.w3.org/2000/svg" viewBox="0 0 200 120" width="200" height="120">
  <g fill="none" stroke="white" stroke-width="2" opacity="0.8">
    <!-- Snowflake 1 -->
    <g transform="translate(30,25)">
      <line x1="0" y1="-12" x2="0" y2="12"/><line x1="-12" y1="0" x2="12" y2="0"/>
      <line x1="-8" y1="-8" x2="8" y2="8"/><line x1="8" y1="-8" x2="-8" y2="8"/>
    </g>
    <!-- Snowflake 2 -->
    <g transform="translate(80,15)">
      <line x1="0" y1="-10" x2="0" y2="10"/><line x1="-10" y1="0" x2="10" y2="0"/>
      <line x1="-7" y1="-7" x2="7" y2="7"/><line x1="7" y1="-7" x2="-7" y2="7"/>
    </g>
    <!-- Snowflake 3 -->
    <g transform="translate(140,20)">
      <line x1="0" y1="-14" x2="0" y2="14"/><line x1="-14" y1="0" x2="14" y2="0"/>
      <line x1="-10" y1="-10" x2="10" y2="10"/><line x1="10" y1="-10" x2="-10" y2="10"/>
    </g>
    <!-- Snowflake 4 -->
    <g transform="translate(180,55)">
      <line x1="0" y1="-8" x2="0" y2="8"/><line x1="-8" y1="0" x2="8" y2="0"/>
      <line x1="-6" y1="-6" x2="6" y2="6"/><line x1="6" y1="-6" x2="-6" y2="6"/>
    </g>
    <!-- Snowflake 5 -->
    <g transform="translate(55,60)">
      <line x1="0" y1="-9" x2="0" y2="9"/><line x1="-9" y1="0" x2="9" y2="0"/>
      <line x1="-6" y1="-6" x2="6" y2="6"/><line x1="6" y1="-6" x2="-6" y2="6"/>
    </g>
    <!-- Snowflake 6 -->
    <g transform="translate(170,90)">
      <line x1="0" y1="-11" x2="0" y2="11"/><line x1="-11" y1="0" x2="11" y2="0"/>
      <line x1="-8" y1="-8" x2="8" y2="8"/><line x1="8" y1="-8" x2="-8" y2="8"/>
    </g>
  </g>
</svg>