<svg xmlns="http://www.w3.org/2000/svg" viewBox="0 0 200 100" width="200" height="100">
  <!-- Star 1 -->
  <polygon points="30,20 33,28 42,28 35,33 37,42 30,37 23,42 25,33 18,28 27,28" fill="#FFD54F"/>
  <!-- Star 2 -->
  <polygon points="170,15 173,23 182,23 175,28 177,37 170,32 163,37 165,28 158,23 167,23" fill="#FFD54F"/>
  <!-- Star 3 -->
  <polygon points="100,10 102,16 108,16 103,20 105,26 100,22 95,26 97,20 92,16 98,16" fill="#FFF176"/>
  <!-- Star 4 -->
  <polygon points="55,50 57,55 63,55 58,58 60,64 55,60 50,64 52,58 47,55 53,55" fill="#FFE082"/>
  <!-- Star 5 -->
  <polygon points="150,55 153,62 160,62 154,66 156,73 150,69 144,73 146,66 140,62 147,62" fill="#FFD54F"/>
  <!-- Star 6 -->
  <polygon points="20,70 22,76 28,76 23,80 25,86 20,82 15,86 17,80 12,76 18,76" fill="#FFF176"/>
  <!-- Star 7 -->
  <polygon points="180,75 182,80 188,80 183,83 185,88 180,85 175,88 177,83 172,80 178,80" fill="#FFE082"/>
  <!-- Star 8 -->
  <polygon points="80,75 82,80 87,80 83,83 84,88 80,85 76,88 77,83 73,80 78,80" fill="#FFF176"/>
</svg>