<svg xmlns="http://www.w3.org/2000/svg" viewBox="0 0 140 50" width="140" height="50">
  <rect x="5" y="5" width="130" height="40" rx="8" fill="#9E9E9E" stroke="#616161" stroke-width="2"/>
  <!-- Zipper teeth -->
  <polygon points="20,5 25,20 30,5" fill="#BDBDBD" stroke="#757575" stroke-width="1"/>
  <polygon points="20,45 25,30 30,45" fill="#BDBDBD" stroke="#757575" stroke-width="1"/>
  <polygon points="40,5 45,20 50,5" fill="#BDBDBD" stroke="#757575" stroke-width="1"/>
  <polygon points="40,45 45,30 50,45" fill="#BDBDBD" stroke="#757575" stroke-width="1"/>
  <polygon points="60,5 65,20 70,5" fill="#BDBDBD" stroke="#757575" stroke-width="1"/>
  <polygon points="60,45 65,30 70,45" fill="#BDBDBD" stroke="#757575" stroke-width="1"/>
  <polygon points="80,5 85,20 90,5" fill="#BDBDBD" stroke="#757575" stroke-width="1"/>
  <polygon points="80,45 85,30 90,45" fill="#BDBDBD" stroke="#757575" stroke-width="1"/>
  <polygon points="100,5 105,20 110,5" fill="#BDBDBD" stroke="#757575" stroke-width="1"/>
  <polygon points="100,45 105,30 110,45" fill="#BDBDBD" stroke="#757575" stroke-width="1"/>
  <!-- Zipper pull -->
  <rect x="115" y="15" width="15" height="20" rx="3" fill="#FFD54F" stroke="#F9A825" stroke-width="2"/>
</svg>